<svg xmlns="http://www.w3.org/2000/svg" width="400px" height="400px" viewBox="0 0 400 400"><path d="M 0 200 C 0 89.542969 89.542969 0 200 0 C 310.457031 0 400 89.542969 400 200 C 400 310.457031 310.457031 400 200 400 C 89.542969 400 0 310.457031 0 200 Z M 0 200" fill="#ffffff"></path><path d="M 154.226562 198.65625 C 160.011719 192.871094 169.382812 192.871094 175.167969 198.65625 C 180.949219 204.441406 180.949219 213.804688 175.167969 219.589844 L 117.78125 276.976562 C 111.996094 282.761719 102.609375 282.773438 96.824219 276.988281 C 91.042969 271.203125 91.054688 261.828125 96.835938 256.042969 Z M 227.558594 226.816406 C 233.320312 221.007812 242.695312 220.960938 248.503906 226.722656 C 254.3125 232.484375 254.34375 241.859375 248.582031 247.667969 L 219.550781 276.941406 L 218.425781 277.976562 C 212.628906 282.738281 204.050781 282.429688 198.605469 277.03125 C 193.164062 271.632812 192.785156 263.054688 197.503906 257.214844 L 198.515625 256.089844 Z M 261.566406 191.140625 C 267.351562 185.359375 276.726562 185.359375 282.511719 191.140625 C 288.296875 196.925781 288.296875 206.300781 282.511719 212.085938 L 281.957031 212.648438 L 280.832031 213.671875 C 275.015625 218.414062 266.4375 218.070312 261.015625 212.648438 C 255.589844 207.226562 255.25 198.648438 259.992188 192.832031 L 261.015625 191.703125 Z M 212.820312 142.027344 C 218.667969 136.308594 228.042969 136.410156 233.761719 142.257812 C 239.484375 148.105469 239.378906 157.480469 233.53125 163.199219 L 211.667969 184.59375 L 210.542969 185.605469 C 204.671875 190.285156 196.089844 189.847656 190.726562 184.363281 C 185.363281 178.882812 185.117188 170.300781 189.921875 164.53125 L 190.957031 163.417969 Z M 246.964844 105.765625 C 252.746094 99.984375 262.121094 99.988281 267.910156 105.765625 C 273.695312 111.550781 273.695312 120.925781 267.910156 126.710938 L 267.324219 127.296875 L 266.207031 128.320312 C 260.390625 133.066406 251.8125 132.71875 246.390625 127.296875 C 240.96875 121.875 240.613281 113.296875 245.355469 107.480469 L 246.390625 106.351562 Z M 246.964844 105.765625" fill="#0a0a0a"></path></svg>
